<?xml version="1.0" encoding="utf-8"?>
<svg version="1.1" xmlns="http://www.w3.org/2000/svg" xmlns:xlink="http://www.w3.org/1999/xlink" x="0px" y="0px"
	 viewBox="0 0 24 24" style="enable-background:new 0 0 24 24;" xml:space="preserve">
<style type="text/css">
	.st0{fill:#AAAAAA;}
</style>
<path class="st0" d="M17.8,3.7c1.4,0,2.5,1.1,2.5,2.5v11.7c0,1.4-1.1,2.5-2.5,2.5H6.2c-1.4,0-2.5-1.1-2.5-2.5V6.2
	c0-1.4,1.1-2.5,2.5-2.5H17.8z M22,6.2C22,3.9,20.1,2,17.8,2H6.2C3.9,2,2.1,3.9,2.1,6.2v11.7c0,2.3,1.9,4.2,4.2,4.2h11.6
	c2.3,0,4.2-1.9,4.2-4.2V6.2z M11.2,16.2H9.5v2.5H7.9v-2.5H6.2v-2.5h5V16.2z M9.5,5.3H7.9V12h1.7V5.3z M17.8,9.5h-5V12h1.7v6.7h1.7
	V12h1.7V9.5z M16.2,5.3h-1.7v2.5h1.7V5.3z"/>
</svg>
