<?xml version="1.0" encoding="utf-8"?>
<svg version="1.1" xmlns="http://www.w3.org/2000/svg" xmlns:xlink="http://www.w3.org/1999/xlink" x="0px" y="0px"
	 viewBox="0 0 24 24" style="enable-background:new 0 0 24 24;" xml:space="preserve">
<style type="text/css">
	.st0{fill:#AAAAAA;}
</style>
<path class="st0" d="M8.7,21.4C4.8,20,2,16.4,2,12s2.8-8,6.7-9.4v6.2c0,0.6,0.2,1.2,0.5,1.6c0.7,0.9,2,0.9,3,0l0.2-0.2
	c0.3-0.4,0.5-0.6,1.1-0.6c0.8,0,1.9,0.9,1.9,2.5s-1.1,2.5-1.9,2.5c-0.6,0-0.8-0.2-1.1-0.6l-0.2-0.2c-0.5-0.5-1-0.7-1.6-0.7
	c-0.9,0-1.8,0.7-1.8,2.3C8.7,15.2,8.7,21.4,8.7,21.4z M12,2c-0.6,0-1.1,0.1-1.7,0.2v6.6c0,0.4,0.1,0.5,0.1,0.6c0.1,0,0.3,0,0.5-0.2
	l0.2-0.2c0.4-0.4,1-1.1,2.3-1.1c1.7,0,3.6,1.7,3.6,4.2s-1.9,4.2-3.6,4.2c-1.3,0-1.9-0.7-2.3-1.1l-0.2-0.2c-0.2-0.2-0.3-0.2-0.4-0.2
	c-0.1,0-0.2,0.2-0.2,0.6v6.6c0.5,0.1,1.1,0.1,1.7,0.1c5.5,0,10-4.5,10-10S17.5,2,12,2z"/>
</svg>
