<?xml version="1.0" encoding="utf-8"?>
<svg version="1.1" xmlns="http://www.w3.org/2000/svg" xmlns:xlink="http://www.w3.org/1999/xlink" x="0px" y="0px"
	 viewBox="0 0 24 24" style="enable-background:new 0 0 24 24;" xml:space="preserve">
<style type="text/css">
	.st0{fill:#AAAAAA;}
</style>
<path class="st0" d="M2.3,6l9-4.6c0.4-0.2,1-0.2,1.4,0l9,4.7c0.7,0.4,1,1.3,0.6,2c-0.1,0.2-0.3,0.4-0.6,0.6l-9,4.7
	c-0.4,0.2-1,0.2-1.4,0l-9-4.7c-0.7-0.4-1-1.3-0.6-2C1.9,6.4,2.1,6.2,2.3,6L2.3,6z M20.6,11L12,15.4L3.4,11c-0.8-0.1-1.5,0.4-1.6,1.1
	c-0.1,0.5,0.1,0.9,0.4,1.3l9.2,4.8c0.4,0.2,0.8,0.2,1.2,0l9.2-4.8c0.6-0.5,0.6-1.4,0.1-2C21.6,11,21,10.9,20.6,11L20.6,11z
	 M20.6,15.5L12,19.9l-8.6-4.4c-0.8-0.1-1.5,0.4-1.6,1.1c-0.1,0.5,0.1,0.9,0.4,1.3l9.2,4.7c0.4,0.2,0.8,0.2,1.2,0l9.2-4.7
	c0.7-0.4,1-1.2,0.6-1.9c-0.4-0.7-1.2-1-1.9-0.6L20.6,15.5z"/>
</svg>
