<?xml version="1.0" encoding="utf-8"?>
<svg version="1.1" xmlns="http://www.w3.org/2000/svg" xmlns:xlink="http://www.w3.org/1999/xlink" x="0px" y="0px"
	 viewBox="0 0 24 24" style="enable-background:new 0 0 24 24;" xml:space="preserve">
<style type="text/css">
	.st0{fill:#AAAAAA;}
</style>
<path class="st0" d="M12,2C6.5,2,2,6.5,2,12c0,5.2,4,9.5,9.2,10v-7.6c-1-0.3-1.7-1.3-1.7-2.3c0-1.4,1.1-2.5,2.5-2.5s2.5,1.1,2.5,2.5
	c0,1.1-0.7,2-1.7,2.3V22C18,21.6,22,17.3,22,12C22,6.5,17.5,2,12,2z M7.6,12c0,1.5,0.7,2.8,1.9,3.7L8.3,17c-1.5-1.2-2.5-3-2.5-5
	s1-3.8,2.5-5l1.2,1.3C8.3,9.2,7.6,10.5,7.6,12z M15.7,17l-1.2-1.3c1.2-0.9,1.9-2.3,1.9-3.7s-0.7-2.8-1.9-3.7L15.7,7
	c1.6,1.2,2.5,3,2.5,5S17.3,15.8,15.7,17z"/>
</svg>
