<?xml version="1.0" encoding="utf-8"?>
<svg version="1.1" xmlns="http://www.w3.org/2000/svg" xmlns:xlink="http://www.w3.org/1999/xlink" x="0px" y="0px"
	 viewBox="0 0 24 24" style="enable-background:new 0 0 24 24;" xml:space="preserve">
<style type="text/css">
	.st0{fill:#AAAAAA;}
</style>
<path class="st0" d="M9.5,17.8H6.2v-1.7h3.3V17.8z M12,14.5l2.6,2.6l-3.4,0.8L12,14.5z M22,9.6l-6.6,6.7l-2.7-2.7l6.6-6.7
	C19.3,6.9,22,9.6,22,9.6z M17,17v3.3H3.7V3.7h6.1c3.5,0,2.2,5,2.2,5s1.9-0.5,3.4-0.1L17,6.9C15.2,4.6,12.2,2,10.5,2H2v20h16.7v-6.6
	L17,17z"/>
</svg>
